<svg xmlns="http://www.w3.org/2000/svg"><symbol id="sprite-asteroid" viewBox="0 0 512 512"><path d="M299.749 11.742l-77.882 90.955v17.067c61.454 0 112.558-44.293 123.142-102.695-14.672-3.334-29.842-5.087-45.26-5.327z" fill="#4a8dc6"/><path d="M299.448 14.026l.302-2.285c-58.797-.918-121.255 20.48-173.916 63.118 22.958 27.444 57.454 44.904 96.034 44.904v-17.067c38.16.001 70.788-37.291 77.58-88.67z" fill="#77aad4"/><path d="M494.891 206.69C505.647 191.743 512 173.419 512 153.6c0-45.912-33.997-83.863-78.186-90.104-20.976-19.553-45.61-33.467-72.293-41.925.093-.486.192-.971.281-1.459 1.68-9.274-4.476-18.156-13.75-19.837-9.272-1.677-18.156 4.476-19.837 13.75a107.693 107.693 0 01-11.543 32.594L207.364 489.382C223.388 503.452 244.379 512 267.378 512c40.447 0 74.712-26.39 86.568-62.884 13.499-8.248 26.567-17.77 39.047-28.49 11.856 1.562 24.279-2.203 33.388-11.312 9.696-9.696 13.345-23.149 10.95-35.674 38.949-51.165 58.476-110.735 57.56-166.95z" fill="#a5c6e3"/><path d="M460.07 227.363c4.504-53.408-11.71-101.517-45.658-135.465-25.428-25.427-59.593-41.136-97.74-45.279-18.528 33.811-54.395 56.078-94.805 56.078-32.091 0-62.322-14.138-82.944-38.788-6.047-7.231-16.813-8.187-24.04-2.139-7.229 6.047-8.187 16.811-2.139 24.04.046.055.092.107.138.16a305.019 305.019 0 00-46.681 53.294C27.308 155.629 0 194.091 0 238.933c0 21.55 6.309 41.624 17.177 58.484 1.476 51.202 19.973 99.436 56.274 135.739 35.871 35.871 83.389 54.369 133.913 56.227 64.839-20.438 126.908-57.311 178.653-109.056 43.068-43.068 69.366-97.391 74.053-152.964z" fill="#d2e3f1"/><path d="M267.378 364.089v113.778c31.419 0 56.889-25.47 56.889-56.889s-25.471-56.889-56.889-56.889z" fill="#4a8dc6"/><path d="M290.133 420.978c0-31.419-10.188-56.889-22.756-56.889-31.419 0-56.889 25.47-56.889 56.889s25.47 56.889 56.889 56.889c12.569 0 22.756-25.47 22.756-56.889z" fill="#77aad4"/><path d="M420.978 96.711v113.778c31.419 0 56.889-25.47 56.889-56.889s-25.471-56.889-56.889-56.889z" fill="#4a8dc6"/><path d="M443.733 153.6c0-31.419-10.188-56.889-22.756-56.889-31.419 0-56.889 25.47-56.889 56.889s25.47 56.889 56.889 56.889c12.569 0 22.756-25.47 22.756-56.889z" fill="#77aad4"/><g fill="#a5c6e3"><circle cx="256" cy="256" r="8.533"/><circle cx="290.133" cy="221.867" r="8.533"/><circle cx="381.156" cy="329.956" r="8.533"/><circle cx="142.222" cy="432.356" r="8.533"/></g><path d="M108.089 164.978v147.911c40.844 0 73.956-33.112 73.956-73.956s-33.112-73.955-73.956-73.955z" fill="#4a8dc6"/><path d="M147.911 238.933c0-40.844-17.829-73.956-39.822-73.956-40.844 0-73.956 33.112-73.956 73.956s33.112 73.956 73.956 73.956c21.993 0 39.822-33.112 39.822-73.956z" fill="#77aad4"/></symbol><symbol id="sprite-cloud-computing" viewBox="0 0 60 60"><path d="M50.003 21.5c-.115-8.699-7.193-16-15.919-16-5.559 0-10.779 3.005-13.661 7.336A8 8 0 008 19.5c0 .153.014.302.023.454-.01.182-.023.366-.023.546-3.988 1.912-7 6.457-7 11.155C1 38.17 6.33 43.5 12.845 43.5h24.507c.138 0 .272-.016.408-.021.137.005.271.021.408.021h9.803C54.037 43.5 59 38.537 59 32.472c0-5.371-3.894-10.011-8.997-10.972zm0 0s-2.535-.375-5.003 0m-37-2a8 8 0 0116 0" fill="#7fabda" stroke="#7383bf" stroke-width="2" stroke-linecap="round" stroke-miterlimit="10"/><path fill="none" stroke="#424a60" stroke-width="2" stroke-linecap="round" stroke-miterlimit="10" d="M31 31.5v23m0 0l-8-8m16 0l-8 8"/></symbol><symbol id="sprite-cloud" viewBox="0 0 512 512"><path d="M388.896 233.617c0-37.088-30.06-67.148-67.148-67.148-2.227 0-4.421.112-6.592.325-23.166-40.322-66.666-67.472-116.512-67.472-5.887 0-11.684.38-17.358 1.108l172.916 278.674h34.693c18.544 0 33.35-15.03 33.35-33.574l-33.349-111.913zm67.148 0h-34.693l.895 111.913h33.798c30.899 0 55.956-25.057 55.956-55.956s-25.057-55.957-55.956-55.957z" fill="#b440a1"/><path d="M422.246 345.53c-.369.022.369 0 0 0z" fill="#fa9647"/><path d="M477.307 289.574c0-30.899-25.057-55.956-55.956-55.956h-67.148c0-37.088-30.06-67.148-67.148-67.148-2.227 0-4.421.112-6.592.325-20.435-35.566-56.695-60.892-99.177-66.364C115.315 108.947 64.35 165.34 64.35 233.617c-30.899 0-55.956 25.057-55.956 55.956S33.451 345.53 64.35 345.53h100.721c0 18.544 15.03 33.574 33.574 33.574h155.558c18.544 0 33.574-15.03 33.574-33.574h34.469c30.384-.582 55.061-25.426 55.061-55.956z" fill="#fe4382"/><circle cx="221.027" cy="155.279" r="8.393" fill="#fcd999"/><circle cx="422.47" cy="300.765" r="8.393" fill="#feeccc"/><circle cx="137.093" cy="295.169" r="8.393" fill="#fbc566"/><circle cx="137.093" cy="228.022" r="8.393" fill="#feeccc"/><circle cx="103.519" cy="261.596" r="8.393" fill="#fff"/><circle cx="388.896" cy="423.869" r="8.393" fill="#f9b233"/><circle cx="355.322" cy="457.443" r="8.393" fill="#fbc566"/><g fill="#f9b233"><circle cx="198.645" cy="54.557" r="8.393"/><circle cx="8.393" cy="499.41" r="8.393"/><circle cx="411.279" cy="106.037" r="8.393"/></g><circle cx="377.705" cy="72.463" r="8.393" fill="#fbc566"/><circle cx="461.639" cy="12.59" r="8.393" fill="#f9b233"/><path fill="#feeccc" d="M58.754 379.104l14.244 36.116 36.117 14.245-36.117 14.244-14.244 36.116-14.244-36.116-36.117-14.244L44.51 415.22z"/><path d="M316.153 328.743l14.244 36.117 36.117 14.244-36.117 14.244-14.244 36.117-14.244-36.117-36.117-14.244 36.117-14.244zM198.645 211.235l14.244 36.116 36.116 14.245-36.116 14.244-14.244 36.116-14.244-36.116-36.117-14.244 36.117-14.245z" fill="#fcd999"/><path fill="#feeccc" d="M461.639 100.442l14.245 36.116L512 150.802l-36.116 14.244-14.245 36.117-14.244-36.117-36.116-14.244 36.116-14.244z"/></symbol><symbol id="sprite-code" viewBox="0 0 512 512"><path d="M.736 387.416H511.6v12H.736zM93.68 435.32h324.968v12H93.68z" fill="#999"/><path d="M0 201.488l174.648-81.136v38.568l-132.08 57.848v.728l132.08 57.848v38.568L0 232.784v-31.296z" fill="#e21b1b"/><path d="M201.616 328.48l77.864-263.8h36.752l-77.864 263.8h-36.752z"/><path d="M512 233.872L337.352 313.92v-38.568l134.992-57.848v-.728L337.352 158.92v-38.568L512 200.408v33.464z" fill="#e21b1b"/></symbol><symbol id="sprite-design-tool" viewBox="0 0 512.001 512.001"><path d="M505.328 498.2L18.105 10.977a8.087 8.087 0 00-13.801 5.717v487.223a8.084 8.084 0 008.084 8.084h487.223a8.084 8.084 0 005.717-13.801zM85.149 431.156V192.304l239.676 238.852H85.149z" fill="#9baaab"/><path d="M261.718 254.588l-56.936 56.936 120.044 119.632H85.149L6.673 509.633a8.059 8.059 0 005.716 2.368h487.223a8.084 8.084 0 005.716-13.802l-243.61-243.611z" fill="#687f82"/><path d="M77.066 461.338a8.084 8.084 0 00-8.084 8.084V512H85.15v-42.578a8.084 8.084 0 00-8.084-8.084zm64.675 0a8.084 8.084 0 00-8.084 8.084V512h16.169v-42.578a8.085 8.085 0 00-8.085-8.084zm64.676 0a8.084 8.084 0 00-8.084 8.084V512h16.169v-42.578a8.085 8.085 0 00-8.085-8.084zm64.676 0a8.084 8.084 0 00-8.084 8.084V512h16.169v-42.578a8.086 8.086 0 00-8.085-8.084zm64.675 0a8.084 8.084 0 00-8.084 8.084V512h16.169v-42.578a8.085 8.085 0 00-8.085-8.084zm64.676 0a8.084 8.084 0 00-8.084 8.084V512h16.169v-42.578a8.086 8.086 0 00-8.085-8.084z" fill="#365558"/><path d="M176.234 231.74a8.058 8.058 0 01-5.716-2.367L49.79 108.645a8.085 8.085 0 0111.432-11.434L181.95 217.939a8.086 8.086 0 01-5.716 13.801zm43.117 47.428a8.058 8.058 0 01-5.716-2.367l-21.559-21.559a8.085 8.085 0 0111.432-11.434l21.559 21.559a8.086 8.086 0 01-5.716 13.801z" fill="#fff"/><path d="M444.352 214.61L257.749 28.007a8.083 8.083 0 00-11.432 0l-85.367 85.367a8.082 8.082 0 000 11.434L347.553 311.41c1.578 1.578 3.648 2.367 5.716 2.367s4.138-.789 5.716-2.367l85.367-85.366a8.082 8.082 0 000-11.434z" fill="#fd6a33"/><path d="M203.997 70.326l-43.048 43.048a8.082 8.082 0 000 11.434L347.552 311.41a8.06 8.06 0 005.716 2.367 8.058 8.058 0 005.716-2.367l43.048-43.048L203.997 70.326z" fill="#f0353d"/><path d="M416.912 242.049L230.309 55.447a8.085 8.085 0 00-11.432 0l-30.488 30.488a8.082 8.082 0 000 11.434l186.603 186.602a8.06 8.06 0 005.716 2.367 8.058 8.058 0 005.716-2.367l30.488-30.488a8.082 8.082 0 000-11.434z" fill="#4acfd9"/><path d="M203.997 70.326l-15.608 15.608a8.082 8.082 0 000 11.434L374.992 283.97a8.06 8.06 0 005.716 2.367 8.058 8.058 0 005.716-2.367l15.608-15.608L203.997 70.326z" fill="#0295aa"/><g fill="#ffd1a9"><path d="M139.607 6.665a8.085 8.085 0 00-2.211 7.302l21.342 106.709 94.88-94.88L146.909 4.454a8.08 8.08 0 00-7.302 2.211z"/><path d="M139.994 6.324c-.129.113-.264.219-.387.342a8.085 8.085 0 00-2.211 7.302l21.342 106.709 47.805-47.805-66.549-66.548z"/></g><path d="M139.607 6.665a8.085 8.085 0 00-2.211 7.302l9.146 45.733 46.099-46.1-45.732-9.146a8.08 8.08 0 00-7.302 2.211z" fill="#687f82"/><path d="M139.994 6.324c-.129.113-.264.219-.387.342a8.085 8.085 0 00-2.211 7.302l9.146 45.733 23.414-23.415-29.962-29.962z" fill="#365558"/><path d="M444.352 214.61l-96.801 96.801 60.977 60.976c1.578 1.578 3.648 2.367 5.716 2.367s4.138-.789 5.716-2.367l85.367-85.366a8.084 8.084 0 000-11.434l-60.975-60.977z" fill="#cdd4d5"/><path d="M396.316 262.646l-48.765 48.765 60.977 60.976c1.578 1.578 3.648 2.367 5.716 2.367s4.138-.789 5.716-2.367l43.048-43.048-66.692-66.693z" fill="#9baaab"/><path d="M456.495 292.103a8.058 8.058 0 01-5.716-2.367l-21.559-21.559a8.085 8.085 0 0111.432-11.434l21.559 21.559a8.086 8.086 0 01-5.716 13.801z" fill="#fff"/><path d="M505.328 100.133L413.863 8.667c-11.558-11.556-30.363-11.555-41.922 0l-27.44 27.44c-11.558 11.559-11.558 30.364 0 41.923l91.464 91.466a8.083 8.083 0 0011.432 0l57.928-57.928a8.08 8.08 0 00.003-11.435z" fill="#4acfd9"/><path d="M441.684 171.863a8.085 8.085 0 005.716-2.367l57.928-57.928a8.086 8.086 0 000-11.434l-60.976-60.976-69.361 69.361 60.976 60.977a8.091 8.091 0 005.717 2.367z" fill="#ffd1a9"/><path d="M358.465 22.144l-13.962 13.962c-11.558 11.559-11.558 30.364 0 41.923l91.464 91.466a8.083 8.083 0 0011.432 0l29.208-29.208L358.465 22.144z" fill="#0295aa"/><path d="M409.914 73.594l-34.924 34.924 60.976 60.977a8.083 8.083 0 0011.432 0l29.208-29.208-66.692-66.693z" fill="#ff8c29"/><path d="M463.026 113.934a8.058 8.058 0 01-5.716-2.367l-24.39-24.391a8.085 8.085 0 0111.432-11.434l24.39 24.391a8.086 8.086 0 01-5.716 13.801z" fill="#fff"/></symbol><symbol id="sprite-facebook" viewBox="0 0 512 512"><path d="M134.941 272.691h56.123v231.051a8.256 8.256 0 008.258 8.258h95.159a8.256 8.256 0 008.258-8.258V273.78h64.519a8.26 8.26 0 008.204-7.315l9.799-85.061a8.259 8.259 0 00-8.202-9.203h-74.316V118.88c0-16.073 8.654-24.224 25.726-24.224h48.59a8.258 8.258 0 008.258-8.258V8.319a8.256 8.256 0 00-8.258-8.258h-66.965A65.863 65.863 0 00307.027 0c-11.619 0-52.006 2.281-83.909 31.63-35.348 32.524-30.434 71.465-29.26 78.217v62.352H134.94a8.256 8.256 0 00-8.258 8.258v83.975a8.26 8.26 0 008.259 8.259z"/></symbol><symbol id="sprite-history" viewBox="0 0 551.13 551.13"><path d="M275.531 172.228l-.05 120.493c0 4.575 1.816 8.948 5.046 12.177l86.198 86.181 24.354-24.354-81.153-81.136.05-113.361z"/><path d="M310.011 34.445c-121.23 0-221.563 90.033-238.367 206.674H0l86.114 86.114 86.114-86.114h-65.78C122.925 143.53 207.803 68.891 310.011 68.891c113.966 0 206.674 92.707 206.674 206.674s-92.707 206.674-206.674 206.674c-64.064 0-123.469-28.996-162.978-79.555l-27.146 21.192c46.084 58.968 115.379 92.808 190.124 92.808 132.955 0 241.119-108.181 241.119-241.119S442.966 34.446 310.011 34.445z"/></symbol><symbol id="sprite-home_aboutus" viewBox="0 0 512 512"><path d="M477.867 102.4c-18.825 0-34.133 15.309-34.133 34.133s15.309 34.133 34.133 34.133S512 155.358 512 136.533c0-18.824-15.309-34.133-34.133-34.133zm0 51.2c-9.412 0-17.067-7.654-17.067-17.067 0-9.412 7.654-17.067 17.067-17.067s17.067 7.654 17.067 17.067c-.001 9.413-7.655 17.067-17.067 17.067zM34.133 384C15.309 384 0 399.309 0 418.133s15.309 34.133 34.133 34.133c18.825 0 34.133-15.309 34.133-34.133S52.958 384 34.133 384zm0 51.2c-9.412 0-17.067-7.654-17.067-17.067s7.654-17.067 17.067-17.067c9.412 0 17.067 7.654 17.067 17.067S43.546 435.2 34.133 435.2z"/><path d="M461.321 113.186l-73.617-35.541c-4.25-2.057-9.344-.265-11.392 3.977-2.048 4.241-.265 9.344 3.977 11.392l73.617 35.541a8.516 8.516 0 0011.391-3.977c2.048-4.241.265-9.344-3.976-11.392zM384 443.733c-18.825 0-34.133 15.309-34.133 34.133S365.175 512 384 512c18.825 0 34.133-15.309 34.133-34.133S402.825 443.733 384 443.733zm0 51.2c-9.412 0-17.067-7.654-17.067-17.067S374.588 460.8 384 460.8c9.412 0 17.067 7.654 17.067 17.067s-7.655 17.066-17.067 17.066z"/><path d="M367.454 454.52l-73.617-35.541a8.517 8.517 0 00-11.392 3.977c-2.048 4.241-.265 9.344 3.977 11.392l73.617 35.541a8.519 8.519 0 0011.392-3.977c2.047-4.242.264-9.344-3.977-11.392zM256 230.4c-18.825 0-34.133 15.309-34.133 34.133 0 18.825 15.309 34.133 34.133 34.133 18.825 0 34.133-15.309 34.133-34.133 0-18.824-15.308-34.133-34.133-34.133zm0 51.2c-9.412 0-17.067-7.654-17.067-17.067 0-9.412 7.654-17.067 17.067-17.067 9.412 0 17.067 7.654 17.067 17.067S265.412 281.6 256 281.6z"/><path d="M240.998 242.142l-56.55-44.075c-3.721-2.876-9.079-2.236-11.981 1.485-2.893 3.721-2.236 9.079 1.485 11.981l56.55 44.075a8.516 8.516 0 005.24 1.801 8.529 8.529 0 006.741-3.285c2.893-3.722 2.236-9.081-1.485-11.982zM409.6 221.867c-51.755 0-93.867 42.112-93.867 93.867s42.112 93.867 93.867 93.867 93.867-42.112 93.867-93.867-42.112-93.867-93.867-93.867zm0 170.666c-42.351 0-76.8-34.449-76.8-76.8s34.449-76.8 76.8-76.8 76.8 34.449 76.8 76.8-34.449 76.8-76.8 76.8z"/><path d="M409.6 256c-18.825 0-34.133 15.309-34.133 34.133 0 18.825 15.309 34.133 34.133 34.133 18.825 0 34.133-15.309 34.133-34.133S428.425 256 409.6 256zm0 51.2c-9.412 0-17.067-7.654-17.067-17.067 0-9.412 7.654-17.067 17.067-17.067 9.412 0 17.067 7.654 17.067 17.067S419.012 307.2 409.6 307.2zM434.355 341.333h-49.51c-14.583 0-26.445 11.546-26.445 25.728v22.494a8.54 8.54 0 004.258 7.39C376.96 405.222 393.19 409.6 409.6 409.6s32.64-4.378 46.942-12.655a8.525 8.525 0 004.258-7.381V367.07c0-14.191-11.861-25.737-26.445-25.737zm9.378 43.136c-21.239 10.581-47.027 10.581-68.267 0V367.07c0-4.779 4.207-8.67 9.378-8.67h49.51c5.171 0 9.378 3.891 9.378 8.67v17.399zM204.8 324.267c-51.755 0-93.867 42.112-93.867 93.867S153.045 512 204.8 512s93.867-42.112 93.867-93.867-42.112-93.866-93.867-93.866zm0 170.666c-42.351 0-76.8-34.449-76.8-76.8s34.449-76.8 76.8-76.8 76.8 34.449 76.8 76.8-34.449 76.8-76.8 76.8z"/><path d="M204.8 358.4c-18.825 0-34.133 15.309-34.133 34.133 0 18.825 15.309 34.133 34.133 34.133s34.133-15.309 34.133-34.133c0-18.824-15.308-34.133-34.133-34.133zm0 51.2c-9.412 0-17.067-7.654-17.067-17.067 0-9.412 7.654-17.067 17.067-17.067 9.412 0 17.067 7.654 17.067 17.067S214.212 409.6 204.8 409.6zM229.555 443.733h-49.51c-14.583 0-26.445 11.546-26.445 25.728v22.494a8.54 8.54 0 004.258 7.39C172.16 507.622 188.39 512 204.8 512s32.64-4.378 46.942-12.655a8.524 8.524 0 004.258-7.381V469.47c0-14.191-11.861-25.737-26.445-25.737zm9.378 43.136c-21.24 10.581-47.027 10.581-68.267 0V469.47c0-4.779 4.207-8.67 9.378-8.67h49.51c5.171 0 9.378 3.891 9.378 8.67v17.399zM93.867 110.933C42.112 110.933 0 153.045 0 204.8s42.112 93.867 93.867 93.867 93.867-42.112 93.867-93.867c-.001-51.755-42.113-93.867-93.867-93.867zm0 170.667c-42.351 0-76.8-34.449-76.8-76.8s34.449-76.8 76.8-76.8 76.8 34.449 76.8 76.8-34.449 76.8-76.8 76.8z"/><path d="M93.867 145.067c-18.825 0-34.133 15.309-34.133 34.133s15.309 34.133 34.133 34.133c18.825 0 34.133-15.309 34.133-34.133s-15.309-34.133-34.133-34.133zm0 51.2c-9.412 0-17.067-7.654-17.067-17.067s7.654-17.067 17.067-17.067c9.412 0 17.067 7.654 17.067 17.067s-7.655 17.067-17.067 17.067zM118.622 230.4h-49.51c-14.583 0-26.445 11.546-26.445 25.728v22.494a8.54 8.54 0 004.258 7.39c14.302 8.277 30.532 12.655 46.942 12.655s32.64-4.378 46.942-12.655a8.525 8.525 0 004.258-7.381v-22.494c0-14.191-11.862-25.737-26.445-25.737zM128 273.536c-21.239 10.581-47.027 10.581-68.267 0v-17.399c0-4.779 4.207-8.67 9.378-8.67h49.51c5.171 0 9.378 3.891 9.378 8.67v17.399zM298.667 0C246.912 0 204.8 42.112 204.8 93.867s42.112 93.867 93.867 93.867 93.867-42.112 93.867-93.867C392.533 42.112 350.421 0 298.667 0zm0 170.667c-42.351 0-76.8-34.449-76.8-76.8s34.449-76.8 76.8-76.8 76.8 34.449 76.8 76.8-34.449 76.8-76.8 76.8z"/><path d="M298.667 34.133c-18.825 0-34.133 15.309-34.133 34.133s15.309 34.133 34.133 34.133S332.8 87.091 332.8 68.267s-15.309-34.134-34.133-34.134zm0 51.2c-9.412 0-17.067-7.654-17.067-17.067 0-9.412 7.654-17.067 17.067-17.067s17.067 7.654 17.067 17.067c-.001 9.413-7.655 17.067-17.067 17.067zM323.422 119.467h-49.51c-14.583 0-26.445 11.546-26.445 25.728v22.494a8.54 8.54 0 004.258 7.39c14.302 8.277 30.532 12.655 46.942 12.655s32.64-4.378 46.942-12.655a8.525 8.525 0 004.258-7.381v-22.494c0-14.192-11.862-25.737-26.445-25.737zm9.378 43.136c-21.239 10.581-47.027 10.581-68.267 0v-17.399c0-4.779 4.207-8.67 9.378-8.67h49.51c5.171 0 9.378 3.891 9.378 8.67v17.399zM219.827 88.311c-3.063-3.567-8.448-3.994-12.032-.93l-59.136 50.603c-3.584 3.063-4.002 8.448-.939 12.032a8.52 8.52 0 0012.032.93l59.136-50.603c3.585-3.063 4.003-8.448.939-12.032z"/><path d="M407.893 225.289l-51.2-68.267c-2.825-3.78-8.175-4.523-11.947-1.707-3.772 2.825-4.531 8.175-1.707 11.938l51.2 68.267a8.528 8.528 0 006.835 3.413 8.503 8.503 0 005.112-1.707c3.772-2.824 4.532-8.174 1.707-11.937zM337.86 343.953c-2.825-3.772-8.175-4.531-11.947-1.707l-47.667 35.746c-3.772 2.825-4.531 8.175-1.707 11.938a8.528 8.528 0 006.835 3.413 8.54 8.54 0 005.112-1.707l47.667-35.746c3.772-2.823 4.532-8.174 1.707-11.937zM119.467 409.6H59.733c-4.71 0-8.533 3.814-8.533 8.533s3.823 8.533 8.533 8.533h59.733c4.71 0 8.533-3.814 8.533-8.533s-3.822-8.533-8.532-8.533zM93.867 0C75.042 0 59.733 15.309 59.733 34.133c0 18.825 15.309 34.133 34.133 34.133 18.825 0 34.133-15.309 34.133-34.133C128 15.309 112.691 0 93.867 0zm0 51.2c-9.412 0-17.067-7.654-17.067-17.067 0-9.412 7.654-17.067 17.067-17.067 9.412 0 17.067 7.654 17.067 17.067-.001 9.413-7.655 17.067-17.067 17.067z"/><path d="M93.867 51.2a8.53 8.53 0 00-8.533 8.533v59.733a8.53 8.53 0 008.533 8.533 8.53 8.53 0 008.533-8.533V59.733a8.53 8.53 0 00-8.533-8.533z"/></symbol><symbol id="sprite-home_achievement" viewBox="0 0 52 60"><g fill="#000" fill-rule="nonzero"><path d="M16.052 39.601a1 1 0 00-.25-.97 12.574 12.574 0 01-1.996-2.658 1 1 0 00-1.745.98c.34.603.722 1.182 1.144 1.732a14.2 14.2 0 01-1.736.137 1 1 0 10.017 2h.018a16.7 16.7 0 003.833-.521 1 1 0 00.715-.7zm-5.373-3.531a15.994 15.994 0 01-.835-3.267 1 1 0 10-1.979.289c.098.673.234 1.34.407 1.998-.467-.132-.926-.29-1.376-.475a1 1 0 10-.757 1.85c1.11.458 2.275.775 3.464.944a1 1 0 001.075-1.34zm-4.638-3.372a1 1 0 001-1.029 19.005 19.005 0 01.206-3.42 1 1 0 00-1.976-.302 20.74 20.74 0 00-.199 1.862 15.26 15.26 0 01-1.025-.899 1 1 0 00-1.383 1.445 16.14 16.14 0 002.864 2.202.997.997 0 00.513.141zm-2.057-5.871c.457 0 .855-.31.97-.752a18.873 18.873 0 011.102-3.151 1 1 0 10-1.819-.831c-.223.489-.43.996-.618 1.518a19.704 19.704 0 01-.738-1.26 1 1 0 10-1.762.945 19.975 19.975 0 002.089 3.162c.19.233.475.369.776.37zm-2.508-10.78a23.17 23.17 0 001.171 3.794 1 1 0 001.79.128 15.655 15.655 0 011.827-2.532 1 1 0 10-1.493-1.333c-.318.357-.626.735-.923 1.133a22.622 22.622 0 01-.42-1.618 1 1 0 10-1.952.429zm3.295-7.661a1.004 1.004 0 00-1.06.936 23.273 23.273 0 00.102 4.054 1 1 0 001.653.638A12.375 12.375 0 017.84 12.36a1 1 0 10-.936-1.768 13.81 13.81 0 00-1.23.739 21.668 21.668 0 01.035-1.885 1 1 0 00-.936-1.06zm6.934-1.252a.986.986 0 00-1.082-.91 12.9 12.9 0 00-1.577.236c.181-.638.4-1.265.654-1.878a1 1 0 00-1.848-.766 19.446 19.446 0 00-1.15 3.886 1 1 0 001.32 1.125 11.11 11.11 0 012.773-.611 1 1 0 00.91-1.082zm3.53-1.584a1 1 0 10.588-1.912 15.526 15.526 0 00-1.835-.444c.413-.52.863-1.01 1.347-1.467A1 1 0 1013.962.272a15.894 15.894 0 00-2.603 3.188 1 1 0 00.79 1.524 13.28 13.28 0 013.086.566zm27.296 33.272c-.58-.01-1.16-.056-1.736-.137.422-.55.804-1.128 1.143-1.732a1 1 0 00-1.744-.98 12.574 12.574 0 01-1.997 2.658 1 1 0 00.466 1.67 16.7 16.7 0 003.833.521h.018a1 1 0 00.017-2zm4.572-4.207c-.449.184-.908.342-1.376.474.174-.657.31-1.324.408-1.998a1 1 0 10-1.979-.288 15.994 15.994 0 01-.835 3.267 1 1 0 001.076 1.339c1.19-.17 2.353-.486 3.464-.944a1 1 0 10-.757-1.85zm2.85-5.705c-.334.32-.676.62-1.025.899a20.552 20.552 0 00-.198-1.862 1 1 0 00-1.977.303c.171 1.131.24 2.276.206 3.42a1 1 0 001.513.887 16.099 16.099 0 002.864-2.202 1 1 0 00-1.383-1.444zm2.52-6.968a.999.999 0 00-1.354.409c-.234.435-.48.855-.738 1.26a19.894 19.894 0 00-.618-1.518 1 1 0 10-1.819.83c.46 1.016.83 2.071 1.103 3.152a1 1 0 001.745.383 19.975 19.975 0 002.089-3.162 1 1 0 00-.408-1.354zm-2.91-1.974a1.001 1.001 0 001.79-.128 23.17 23.17 0 001.171-3.793 1 1 0 10-1.953-.429c-.12.55-.26 1.09-.419 1.618a16.945 16.945 0 00-.923-1.133 1 1 0 00-1.493 1.333 15.74 15.74 0 011.828 2.532zm-3.402-7.608a12.375 12.375 0 012.372 1.654 1 1 0 001.654-.638c.151-1.346.185-2.702.101-4.054a1 1 0 10-1.996.124c.04.628.05 1.258.034 1.885a13.58 13.58 0 00-1.23-.739 1 1 0 00-.935 1.768zm-2.956-4.144c.947.084 1.879.29 2.774.61a1 1 0 001.319-1.124 19.446 19.446 0 00-1.15-3.886 1 1 0 00-1.848.766c.254.613.473 1.24.654 1.878a12.9 12.9 0 00-1.577-.236.984.984 0 00-1.082.91 1 1 0 00.91 1.082zm-5.69-3.328a1 1 0 001.25.662 13.28 13.28 0 013.087-.566 1 1 0 00.789-1.524A15.894 15.894 0 0040.038.272a1 1 0 10-1.373 1.456c.484.455.934.945 1.347 1.466-.62.11-1.233.259-1.835.444a1 1 0 00-.662 1.25z" transform="translate(-1)"/><path d="M40 47h-8v-8a2.002 2.002 0 002-2v-2a2.002 2.002 0 00-2-2h-2v-4.63l4.628 2.416a1.86 1.86 0 001.969-.147c.573-.415.86-1.12.737-1.817l-1.456-8.425 6.166-5.969a1.859 1.859 0 00-1.033-3.177l-8.526-1.23-3.812-7.67a1.87 1.87 0 00-3.346 0l-3.812 7.67-8.526 1.23a1.86 1.86 0 00-1.033 3.177l6.166 5.969-1.456 8.425a1.866 1.866 0 002.707 1.964L24 28.37V33h-2a2.002 2.002 0 00-2 2v2a2.002 2.002 0 002 2v8h-8a2.002 2.002 0 00-2 2v2a2.002 2.002 0 002 2v5a2.002 2.002 0 002 2h22a2.002 2.002 0 002-2v-5a2.002 2.002 0 002-2v-2a2.002 2.002 0 00-2-2zM18.684 28.89l1.421-8.23a1.855 1.855 0 00-.54-1.65l-6.012-5.82 8.316-1.2a1.863 1.863 0 001.405-1.016L27 3.48l3.725 7.494c.272.55.798.93 1.406 1.017l8.316 1.2-6.012 5.819a1.858 1.858 0 00-.54 1.652l1.421 8.228-7.45-3.89a1.872 1.872 0 00-1.732.001zM26 27.325l1-.522 1 .522V33h-2zM22 35h10l.001 2H22zm2 4h6v8h-6zm14.001 19H16v-5h22zM39 51H14v-2h26l.001 2z" transform="translate(-1)"/></g></symbol><symbol id="sprite-home_email_signature" viewBox="0 0 40 40"><circle fill="#eff9ff" cx="20" cy="20" r="18.5"/><path d="M31 17v13H9.003l-.011-12.529L11 16.154l-.549-.836-2.018 1.323a.922.922 0 00-.431.779v12.891c0 .381.31.689.689.689h22.62a.69.69 0 00.689-.689V17h-1"/><path d="M10 18.84V8.689c0-.38.31-.689.689-.689h16.62a.69.69 0 01.691.689v1.478a.5.5 0 01-1 0V9H11v9.84h-1z"/><path d="M23.958 15.03a.5.5 0 01-.43-.756l.809-1.358a.518.518 0 01.154-.162l5.819-3.832a.5.5 0 01.485-.036.5.5 0 01.21-.491l.58-.401a.495.495 0 01.701.135l.802 1.215a.497.497 0 01-.143.693l-1.314.863a.493.493 0 01-.382.07.498.498 0 01-.216.324l-5.247 3.456a.51.51 0 01-.213.079l-1.554.196a.302.302 0 01-.061.005zm1.18-1.504l-.227.379.423-.053 5.149-3.392a.507.507 0 01.203-.078l-.238-.354-5.31 3.498zm6.015-4.239l.343.507.482-.317-.244-.37-.16.11a.489.489 0 01-.421.07zM8.176 30.354l-.352-.603 11.907-6.953 11.837 6.953-.355.603-11.483-6.746z"/><path d="M21.594 24.635a.345.345 0 01-.276-.136.347.347 0 01.063-.49l9.406-7.286a.35.35 0 01.427.554l-9.406 7.285a.35.35 0 01-.214.073zm-3.69.021a.343.343 0 01-.219-.077l-7.367-5.914c-.217-.133-.344-.365-.344-.665a.35.35 0 01.7 0c0 .065.009.071.049.096l7.4 5.938a.35.35 0 01-.219.622zM15.138 18.545c-.117 0-.229-.015-.338-.046-.373-.105-.858-.44-1.061-1.438-.355-1.756.357-4.701 1.811-5.865.25-.201 1.014-.814 1.633-.418 1.022.654.354 3.706.125 4.626a.355.355 0 01-.424.255.35.35 0 01-.255-.424c.404-1.624.576-3.612.177-3.867-.088-.059-.358.005-.817.374-1.21.97-1.871 3.659-1.563 5.18.06.294.212.803.565.903.203.055.803.055 1.995-1.219.318-.34.631-.737.933-1.121.667-.847 1.193-1.517 1.739-1.578.344-.042.553.088.664.203.319.328.24.882.165 1.419-.024.171-.062.434-.056.583.235-.088.51-.328.756-.542.502-.437 1.127-.98 1.612-.478.447.467.554.578 1.389-.034a.35.35 0 01.414.564c-1.136.832-1.631.661-2.308-.046-.079.025-.436.335-.648.521-.35.305-.711.619-1.075.709-.315.077-.512-.021-.62-.118-.297-.268-.229-.749-.157-1.259.033-.236.102-.724.027-.832h-.031c-.013 0-.031 0-.053.003-.255.029-.84.772-1.268 1.315-.311.396-.633.805-.971 1.167-.909.974-1.701 1.463-2.36 1.463z"/></symbol><symbol style="isolation:isolate" id="sprite-home_embed" viewBox="0 0 65 50"><defs><clipPath id="a"><path d="M0 0h65v50H0z"/></clipPath></defs><g clip-path="url(#a)"><path d="M1.175 30.146C.118 35.734 4.009 42.678 8.58 45.393c4.894 2.909 12.75 4.16 18.351 4.001 7.032-.196 14.35-2.214 20.314-5.933 6.986-4.357 13.396-10.209 15.705-18.364 1.78-6.285 1.657-15.126-3.216-20.1C57.505 2.722 52.886.5 49.632.596c-2.843.083-6.636 1.1-9.065 2.597-6.843 4.215-10.364 11.189-16.89 13.85-1.792.73-4.138.768-6.032 1.243-2.189.55-4.349 1.232-6.423 2.125-3.694 1.59-7.774 3.982-9.463 7.831a8.904 8.904 0 00-.584 1.904z" fill="#FFE121"/><path d="M16.242 4.097h-1.549v1.549h1.549V4.097zm-3.096 0h-1.549v1.549h1.549V4.097zm6.193 0h-1.548v1.549h1.548V4.097zM27.08 19.58H11.597v-9.289H27.08v9.289zm-1.548-7.741H13.146v6.193h12.387v-6.193h-.001zm4.646-1.548h-1.549v1.548h1.549v-1.548zm1.548 1.548h9.29v-1.548h-9.29v1.548zm-3.097 3.097h12.387v-1.548H28.629v1.548zm0 3.096h12.387v-1.549H28.629v1.549zM56.5 29.646C56.5 40.317 47.817 49 37.146 49a19.271 19.271 0 01-18.945-15.484h-7.378a2.324 2.324 0 01-2.322-2.322V3.322A2.324 2.324 0 0110.822 1h30.969a2.325 2.325 0 012.321 2.322v8.28C51.541 14.471 56.5 21.645 56.5 29.646zM44.112 13.268v2.351c.641 1.179 1.186 2.517 1.637 3.962h6.069a17.773 17.773 0 00-7.706-6.313zm.007 26.441H30.155c1.564 4.684 4.163 7.742 6.99 7.742 2.846 0 5.418-3.102 6.974-7.742zm.467-1.548c.625-2.331 1.006-4.966 1.065-7.742h-1.539v.774a2.324 2.324 0 01-2.321 2.322H28.847c.179 1.647.467 3.207.851 4.646h14.888zm-.474-9.291h1.529c-.073-3.358-.605-6.579-1.529-9.324v9.324zm2.105 9.291h6.562a17.643 17.643 0 002.153-7.742H47.2c-.054 2.784-.399 5.4-.983 7.742zm8.705-9.291a17.788 17.788 0 00-2.158-7.741h-6.58c.603 2.397.95 5.029 1.007 7.741h7.731zM10.049 3.322v3.871h32.515V3.322a.772.772 0 00-.772-.773h-30.97a.774.774 0 00-.773.773zm.773 28.645h30.969a.771.771 0 00.772-.773V8.742H10.049v22.451c0 .428.347.774.773.774zm8.961 1.549a17.784 17.784 0 001.725 4.646h6.59a33.085 33.085 0 01-.808-4.646h-7.507zm12.73 13.327c-1.642-1.621-3.02-4.084-3.978-7.134h-6.091a17.717 17.717 0 0010.069 7.134zm19.312-7.134h-6.038c-.938 3.02-2.296 5.475-3.926 7.104a17.862 17.862 0 009.964-7.104zM40.863 25.34H11.946v-1.5h28.917v1.5zM32.5 29.174H11.946v-1.5H32.5v1.5zm7.888-24.37a1 1 0 11-2 0 1 1 0 012 0z" fill="#283F88"/></g></symbol><symbol style="isolation:isolate" id="sprite-home_enterprise" viewBox="0 0 65 50"><defs><clipPath id="a"><path d="M0 0h65v50H0z"/></clipPath></defs><g clip-path="url(#a)"><path d="M.524 30.074c-.381 6.897 3.768 13.999 10.19 16.689 5.049 2.114 10.353 2.848 15.798 2.694 8.119-.229 15.401-2.615 22.21-6.991 9.359-6.016 19.498-19.42 14.422-31.001C60.324 5.034 53.767-.66 46.357.735c-2.008.378-4.377 1.15-6.124 2.227-6.886 4.243-10.429 11.26-16.997 13.938-6.582 2.682-9.749 1.653-15.159 4.286C3.049 23.635.692 27.043.524 30.074z" fill="#FFE121"/><path fill="#283F88" d="M25 16.667h1.667v1.667H25zM25 20h1.667v1.667H25zm0 3.333h1.667V25H25zm0 3.334h1.667v1.667H25zm3.333-10H30v1.667h-1.667zm0 3.333H30v1.667h-1.667zm0 3.333H30V25h-1.667zm0 3.334H30v1.667h-1.667zm3.334-10h1.667v1.667h-1.667zm0 3.333h1.667v1.667h-1.667zm0 3.333h1.667V25h-1.667zm0 3.334h1.667v1.667h-1.667zm3.333-10h1.667v1.667H35zm-6.667-3.334H30V15h-1.667zm3.334 0h1.667V15h-1.667zm3.333 0h1.667V15H35zM35 20h1.667v1.667H35zm0 3.333h1.667V25H35zm0 3.334h1.667v1.667H35zm3.333-10H40v1.667h-1.667zm0 3.333H40v1.667h-1.667zm0 3.333H40V25h-1.667zm0 3.334H40v1.667h-1.667z"/><path d="M56.668 12.5H44.167V.833A.833.833 0 0043.334 0H21.667a.834.834 0 00-.834.832V12.5h-12.5a.832.832 0 00-.833.832v30.001c0 .46.372.833.832.834h1.743A5.059 5.059 0 0010 45v4.167c0 .46.372.833.832.833h43.335c.46 0 .833-.372.833-.832V45a5.059 5.059 0 00-.075-.833h1.742c.46 0 .833-.373.833-.833V13.333a.832.832 0 00-.832-.833zM43.333 35.833a1.666 1.666 0 11-3.333.001 1.666 1.666 0 013.333-.001zm-20-1.666a1.666 1.666 0 11.001 3.333 1.666 1.666 0 01-.001-3.333zm-5 14.166h-6.666V45a3.333 3.333 0 116.666 0v3.333zm-5-10a1.666 1.666 0 113.333 0 1.666 1.666 0 01-3.333 0zm5.127 3.065a5.043 5.043 0 00-1.049-.776 3.333 3.333 0 10-4.822 0 5.043 5.043 0 00-1.913 1.878H9.167V14.167h11.666v19.485a3.288 3.288 0 00.089 4.47 5.015 5.015 0 00-2.462 3.276zm8.207 6.935H20V42.5a3.333 3.333 0 116.667 0v5.833zm10 0h-8.334V42.5a4.167 4.167 0 018.334 0v5.833zM30 34.167a2.5 2.5 0 115 0 2.5 2.5 0 01-5 0zm7.575 5.468a5.865 5.865 0 00-2.391-2.308 4.166 4.166 0 10-5.368 0 5.865 5.865 0 00-2.391 2.308 5.046 5.046 0 00-1.68-1.513 3.309 3.309 0 00-3.245-5.504V1.667h20v30.951a3.31 3.31 0 00-.833-.118 3.325 3.325 0 00-2.412 5.622 5.046 5.046 0 00-1.68 1.513zM45 45v3.333h-6.667V42.5a3.334 3.334 0 016.667 0V45zm8.333 3.333h-6.666V45a3.333 3.333 0 116.666 0v3.333zm-5-10a1.666 1.666 0 113.333 0 1.666 1.666 0 01-3.333 0zm7.5 4.167h-1.509a5.043 5.043 0 00-1.913-1.878 3.333 3.333 0 10-4.822 0 5.043 5.043 0 00-1.049.776 5.012 5.012 0 00-2.462-3.276 3.288 3.288 0 00.089-4.47V14.167h11.666V42.5z" fill="#283F88"/><path fill="#283F88" d="M46.667 19.167h1.667V32.5h-1.667zM51.667 19.167h1.667V32.5h-1.667zM11.667 19.167h1.667V32.5h-1.667zM16.667 19.167h1.667V32.5h-1.667zM37.501 3.333H27.5a.833.833 0 00-.833.833v6.667a.833.833 0 00.832.834H37.5c.46 0 .833-.373.833-.833V4.167a.833.833 0 00-.832-.834zM36.667 10h-8.334V5h8.334v5z"/></g></symbol><symbol id="sprite-home_friends" viewBox="-22 -107 692.501 692"><path d="M307.234 471.414H115.656a10.646 10.646 0 01-10.578-9.465L98.16 399.91l-14.71 63.274a10.63 10.63 0 01-10.364 8.23H9.23a10.64 10.64 0 01-8.37-4.066 10.676 10.676 0 01-1.977-9.094l39.27-161.402c20.94-69.848 88.367-116.118 160.558-110.586 170.785 13.144 294.613 15.504 348.617 6.648 14.32-2.312 28.77 3.95 36.852 16.059a37.332 37.332 0 014.945 30.53 36.835 36.835 0 01-19.465 23.474c-42.168 20.382-127.906 52.785-236.324 46.218l-15.52 152.657c-.546 5.43-5.125 9.562-10.582 9.562zm-182.058-21.293h172.441l15.59-153.367c.59-5.766 5.59-10.156 11.477-9.52 108.324 8.977 194.156-23.336 235.707-43.425 4.086-1.977 6.992-5.496 8.203-9.914a16.071 16.071 0 00-2.121-13.122c-3.438-5.16-9.528-7.91-15.684-6.851-71.387 11.656-231.734 2.941-353.723-6.442-62.12-4.828-120.445 35.137-138.37 94.934L22.77 450.121h41.87l26.83-115.527c1.168-5.047 5.945-8.512 10.984-8.207a10.64 10.64 0 019.961 9.43zm0 0"/><path d="M209.43 408.68a10.612 10.612 0 01-8.203-3.868l-50.79-61.476c-9.703-11.719-12.09-27.832-6.261-42.05 5.61-13.704 17.597-22.755 32.031-24.231 12.066-1.137 24.113 2.53 33.219 10.062 9.101-7.531 21.379-11.199 33.187-10.062 14.469 1.484 26.45 10.527 32.067 24.23 5.828 14.219 3.437 30.324-6.262 42.05l-50.79 61.478a10.598 10.598 0 01-8.198 3.867zm-28.621-110.567c-.829 0-1.649.043-2.47.121-9.327.957-13.226 8.102-14.472 11.125-2.226 5.438-2.62 13.657 2.969 20.426l42.594 51.54 42.59-51.54c5.601-6.77 5.195-14.988 2.976-20.426-1.25-3.023-5.144-10.168-14.508-11.125-8.218-.867-17.308 3.153-22.191 10.504-3.945 5.926-13.781 5.926-17.734 0-4.418-6.648-11.805-10.625-19.754-10.625zm45.062-126.726c-49.062 0-88.976-39.918-88.976-88.985s39.914-88.98 88.976-88.98c49.066 0 88.984 39.914 88.984 88.98s-39.918 88.985-88.984 88.985zm0-156.684c-37.324 0-67.691 30.375-67.691 67.7 0 37.327 30.367 67.699 67.691 67.699 37.332 0 67.703-30.372 67.703-67.7 0-37.324-30.37-67.699-67.703-67.699zm215.438 166.606c-43.739 0-79.32-35.582-79.32-79.317 0-43.746 35.581-79.332 79.32-79.332 43.742 0 79.324 35.586 79.324 79.332 0 43.735-35.582 79.317-79.324 79.317zm0-137.368c-32 0-58.04 26.036-58.04 58.051 0 31.996 26.04 58.035 58.04 58.035 32.007 0 58.043-26.039 58.043-58.035 0-32.015-26.036-58.05-58.043-58.05zM637.16 471.414h-78.336a10.645 10.645 0 01-9.66-6.172l-18.871-40.758v36.286a10.64 10.64 0 01-10.645 10.644H349.805a10.65 10.65 0 01-7.918-3.52 10.654 10.654 0 01-2.672-8.246l13.172-123.761c.578-5.414 5.136-9.52 10.578-9.52 1.281 0 128.887-.66 216.683-50.824 2.829-1.625 6.239-1.871 9.243-.633a10.599 10.599 0 016.246 6.848l52.23 175.992a10.66 10.66 0 01-1.668 9.383 10.697 10.697 0 01-8.539 4.281zm-71.543-21.293h57.278l-44.446-149.754c-77.765 39.684-175.14 46.067-205.89 47.082L361.64 450.121h147.367v-73.95c0-4.991 3.472-9.312 8.36-10.386 4.835-1.055 9.839 1.39 11.937 5.926zm0 0"/></symbol><symbol style="isolation:isolate" id="sprite-home_individuals" viewBox="0 0 65 50"><defs><clipPath id="a"><path d="M0 0h65v50H0z"/></clipPath></defs><g clip-path="url(#a)"><path d="M26.55 16.393s-3.219 1.926-10.295 1.319C9.178 17.106.87 15.66.512 24.225c-.48 11.498 13.79 20.665 23.4 23.324 11.017 3.049 23.747 1.203 31.934-7.272 8.876-9.19 12.768-23.654 2.655-33.625-3.511-3.463-8.358-5.663-13.31-5.574-5.804.104-9.135 3.54-12.392 7.921C31.087 11.3 29 14.83 26.55 16.393z" fill="#FFE121"/><path d="M33.268 15.152c-3.843 0-6.97-3.126-6.97-6.969a6.978 6.978 0 016.97-6.97 6.978 6.978 0 016.971 6.97 6.979 6.979 0 01-6.971 6.969zm0-11.938a4.975 4.975 0 00-4.97 4.97 4.975 4.975 0 004.97 4.969 4.976 4.976 0 004.971-4.969 4.977 4.977 0 00-4.971-4.97zm5.208 44.856H27.947l-1.055-12.161-3.697-.533V24.592a6.88 6.88 0 016.872-6.872h6.105a6.88 6.88 0 016.871 6.872v10.786l-3.743.53-.824 12.162zm-8.695-2h6.826l.808-11.914 3.629-.515v-9.05a4.877 4.877 0 00-4.871-4.872h-6.105a4.878 4.878 0 00-4.872 4.872v9.052l3.552.512 1.033 11.915z" fill="#283F88"/></g></symbol><symbol id="sprite-home_iq" viewBox="0 0 512.001 512.001"><path d="M341.954 328.358c-12.131 0-22-8.542-22-19.041 0-10.5 9.869-19.042 22-19.042s22 8.542 22 19.042c0 5.522 4.478 10 10 10s10-4.478 10-10c0-18.325-13.654-33.733-32-37.915v-5.201c0-5.522-4.478-10-10-10s-10 4.478-10 10v5.201c-18.346 4.182-32 19.59-32 37.915 0 21.527 18.841 39.041 42 39.041 12.131 0 22 8.542 22 19.042s-9.869 19.042-22 19.042-22-8.542-22-19.042c0-5.522-4.478-10-10-10s-10 4.478-10 10c0 18.325 13.654 33.733 32 37.915v4.32c0 5.522 4.478 10 10 10s10-4.478 10-10v-4.32c18.346-4.182 32-19.59 32-37.915 0-21.528-18.841-39.042-42-39.042zM451.482 268.876a130.294 130.294 0 00-53.222-47.101c-4.979-2.394-10.954-.298-13.346 4.68-2.393 4.978-.298 10.952 4.68 13.345C427.505 258.024 452 296.963 452 339.001c0 17.988-4.434 35.827-12.821 51.591-2.594 4.875-.745 10.931 4.131 13.525a10 10 0 0013.525-4.131C466.756 381.342 472 360.253 472 339.001c0-24.96-7.095-49.209-20.518-70.125zM357.673 209.002l-.673-.001c-5.522 0-10 4.477-10 10s4.478 10 10 10l.579.001h.048c5.501 0 9.973-4.446 9.999-9.953.025-5.523-4.431-10.021-9.953-10.047zM294.407 438.202c-37.91-18.225-62.405-57.164-62.405-99.201 0-17.988 4.434-35.827 12.821-51.591 2.594-4.875.745-10.931-4.131-13.525-4.874-2.594-10.932-.745-13.525 4.131-9.921 18.645-15.165 39.733-15.165 60.985 0 24.96 7.095 49.208 20.518 70.125a130.304 130.304 0 0053.222 47.102 10.002 10.002 0 008.665-18.026zM327.002 449.001l-.579-.002c-5.548-.01-10.02 4.429-10.045 9.953-.026 5.523 4.432 10.021 9.954 10.047l.67.002c5.522 0 10-4.478 10-10s-4.478-10-10-10z"/><path d="M387.409 175.168a45.9 45.9 0 00-4.443-8.168H409c25.364 0 46-20.636 46-46s-20.636-46-46-46h-80.08A45.733 45.733 0 00337 49c0-25.364-20.636-46-46-46H46C20.636 3 0 23.636 0 49s20.636 46 46 46h80.08c-5.091 7.402-8.08 16.357-8.08 26s2.988 18.598 8.08 26H100c-25.364 0-46 20.636-46 46 0 14.567 6.814 27.566 17.415 36C60.814 237.434 54 250.433 54 265s6.814 27.566 17.415 36C60.814 309.434 54 322.433 54 337s6.814 27.566 17.415 36C60.814 381.434 54 394.433 54 409c0 25.364 20.636 46 46 46h117.85c31.046 33.207 75.212 54.001 124.151 54.001 93.738 0 170-76.262 170-170 0-78.017-52.83-143.918-124.592-163.833zM409 95c14.337 0 26 11.664 26 26s-11.663 26-26 26H164c-14.337 0-26-11.664-26-26s11.663-26 26-26h245zM46 75c-14.337 0-26-11.664-26-26s11.663-26 26-26h245c14.337 0 26 11.664 26 26s-11.663 26-26 26H46zm54 92h245c4.028 0 7.885.936 11.345 2.612-4.73-.397-9.512-.611-14.344-.611-46.945 0-89.505 19.129-120.299 49.999H100c-14.336 0-26-11.664-26-26s11.664-26 26-26zm0 72h104.615c-11.352 15.553-20.129 33.095-25.703 52H100c-14.337 0-26-11.663-26-26 0-14.336 11.663-26 26-26zm0 72h74.32a170.4 170.4 0 00-2.319 28.001c0 8.146.589 16.156 1.702 23.999H100c-14.337 0-26-11.663-26-26s11.663-26 26-26zm0 124c-14.337 0-26-11.663-26-26s11.663-26 26-26h77.786a169.33 169.33 0 0023.993 52H100zm242.001 54.001c-82.71 0-150-67.29-150-150s67.29-150 150-150 150 67.29 150 150-67.29 150-150 150z"/></symbol><symbol id="sprite-home_list" viewBox="0 0 60 60"><path d="M23.429 17H47a1 1 0 100-2H23.429a1 1 0 100 2zm0 15H47a1 1 0 100-2H23.429a1 1 0 100 2zm0 15H47a1 1 0 100-2H23.429a1 1 0 100 2z"/><path d="M59 0H1a1 1 0 00-1 1v58a1 1 0 001 1h58a1 1 0 001-1V1a1 1 0 00-1-1zm-1 58H2V2h56v56z"/><path d="M12.501 18.474l2.428-1.277 2.428 1.277-.463-2.704 1.964-1.916-2.715-.394L14.929 11l-1.214 2.46-2.715.394 1.965 1.916zm0 15.083l2.428-1.277 2.428 1.277-.463-2.704 1.964-1.915-2.715-.395-1.214-2.46-1.214 2.46-2.715.395 1.965 1.915zm0 15.443l2.428-1.277L17.357 49l-.463-2.704 1.964-1.915-2.715-.395-1.214-2.46-1.214 2.46-2.715.395 1.965 1.915z"/></symbol><symbol id="sprite-instagram" viewBox="0 0 511 511.9"><path d="M510.95 150.5c-1.2-27.2-5.598-45.898-11.9-62.102-6.5-17.199-16.5-32.597-29.6-45.398-12.802-13-28.302-23.102-45.302-29.5-16.296-6.3-34.898-10.7-62.097-11.898C334.648.3 325.949 0 256.449 0s-78.199.3-105.5 1.5c-27.199 1.2-45.898 5.602-62.097 11.898-17.204 6.5-32.602 16.5-45.403 29.602-13 12.8-23.097 28.3-29.5 45.3-6.3 16.302-10.699 34.9-11.898 62.098C.75 177.801.449 186.5.449 256s.301 78.2 1.5 105.5c1.2 27.2 5.602 45.898 11.903 62.102 6.5 17.199 16.597 32.597 29.597 45.398 12.801 13 28.301 23.102 45.301 29.5 16.3 6.3 34.898 10.7 62.102 11.898 27.296 1.204 36 1.5 105.5 1.5s78.199-.296 105.5-1.5c27.199-1.199 45.898-5.597 62.097-11.898a130.934 130.934 0 0074.903-74.898c6.296-16.301 10.699-34.903 11.898-62.102 1.2-27.3 1.5-36 1.5-105.5s-.102-78.2-1.3-105.5zm-46.098 209c-1.102 25-5.301 38.5-8.801 47.5-8.602 22.3-26.301 40-48.602 48.602-9 3.5-22.597 7.699-47.5 8.796-27 1.204-35.097 1.5-103.398 1.5s-76.5-.296-103.403-1.5c-25-1.097-38.5-5.296-47.5-8.796C94.551 451.5 84.45 445 76.25 436.5c-8.5-8.3-15-18.3-19.102-29.398-3.5-9-7.699-22.602-8.796-47.5-1.204-27-1.5-35.102-1.5-103.403s.296-76.5 1.5-103.398c1.097-25 5.296-38.5 8.796-47.5C61.25 94.199 67.75 84.1 76.352 75.898c8.296-8.5 18.296-15 29.398-19.097 9-3.5 22.602-7.7 47.5-8.801 27-1.2 35.102-1.5 103.398-1.5 68.403 0 76.5.3 103.403 1.5 25 1.102 38.5 5.3 47.5 8.8 11.097 4.098 21.199 10.598 29.398 19.098 8.5 8.301 15 18.301 19.102 29.403 3.5 9 7.699 22.597 8.8 47.5 1.2 27 1.5 35.097 1.5 103.398s-.3 76.301-1.5 103.301zm0 0"/><path d="M256.45 124.5c-72.598 0-131.5 58.898-131.5 131.5s58.902 131.5 131.5 131.5c72.6 0 131.5-58.898 131.5-131.5s-58.9-131.5-131.5-131.5zm0 216.8c-47.098 0-85.302-38.198-85.302-85.3s38.204-85.3 85.301-85.3c47.102 0 85.301 38.198 85.301 85.3s-38.2 85.3-85.3 85.3zm167.402-222c0 16.954-13.747 30.7-30.704 30.7-16.953 0-30.699-13.746-30.699-30.7 0-16.956 13.746-30.698 30.7-30.698 16.956 0 30.703 13.742 30.703 30.699zm0 0"/></symbol><symbol id="sprite-paint-palette" viewBox="0 0 512 512"><radialGradient id="a" cx="256" cy="258" r="256" gradientTransform="matrix(1 0 0 -1 0 514)" gradientUnits="userSpaceOnUse"><stop offset="0" stop-color="#04be9e"/><stop offset="1" stop-color="#00a185"/></radialGradient><circle cx="256" cy="256" r="256" fill="url(#a)"/><g><path d="M337.543 228.916c-48.986-4.83-51.055-14.489-45.535-46.226s-28.979-60.715-91.762-42.086c-62.785 18.628-115.91 72.443-95.213 175.935 0 0 28.287 101.421 125.57 116.6 97.281 15.179 157.994-19.318 180.072-89.002 22.079-69.685-24.146-110.392-73.132-115.221zm-133.504-14.489c-11.621 0-21.043-9.421-21.043-21.043a20.964 20.964 0 015.346-14.01 20.976 20.976 0 00-2.352 5.073 20.966 20.966 0 0114.6-5.896c11.623 0 21.043 9.421 21.043 21.043 0 2.15-.324 4.224-.922 6.177.406-.393.793-.805 1.168-1.229-3.721 5.936-10.317 9.885-17.84 9.885z" fill="#94a5a6"/><path d="M332.713 232.365c-48.984-4.83-51.055-14.489-45.535-46.226s-28.979-60.715-91.762-42.086c-62.785 18.628-115.91 72.443-95.211 175.935 0 0 28.287 101.421 125.568 116.6s157.996-19.318 180.074-89.002c22.079-69.685-24.148-110.391-73.134-115.221zm-128.674-17.938c-11.621 0-21.043-9.421-21.043-21.043s9.422-21.043 21.043-21.043c11.623 0 21.045 9.421 21.045 21.043s-9.422 21.043-21.045 21.043z" fill="#ecf0f1"/><circle cx="365.141" cy="300.669" r="31.047" fill="#c6362b"/><circle cx="359.621" cy="297.22" r="15.869" fill="#ee483c"/><path d="M406.529 67.561l-87.41 155.065-9.014-5.083s63.629-167.676 96.424-149.982z" fill="#32495d"/><path d="M406.529 67.561l-87.41 155.065 9.246 5.211s110.281-141.38 78.164-160.276z" fill="#2a3e4f"/><path fill="#f4c342" d="M315.272 250.54l-18.03-10.162 12.873-22.838 18.03 10.163z"/><path fill="#f89b36" d="M315.272 250.54l-9.014-5.081 12.872-22.837 9.014 5.08z"/><path d="M297.23 240.382s-39.801-1.051-40.25 39.087c-.449 40.139-26.186 29.592-26.186 29.592s36.223 35.181 76.146-3.013c34.381-32.892 8.32-55.503 8.32-55.503l-18.03-10.163z" fill="#94a5a6"/><path d="M315.262 250.546l-18.031-10.164s-2.523-.066-6.305.475c2.32 2.169 24.102 24.118-8.518 55.323-16.793 16.067-32.934 19.147-45.996 17.327 11.672 8.066 40.02 21.731 70.529-7.458 34.381-32.892 8.321-55.503 8.321-55.503z" fill="#7e8c8d"/><circle cx="323.055" cy="369.663" r="31.047" fill="#f89b36"/><circle cx="317.535" cy="366.213" r="15.869" fill="#f4c342"/><circle cx="251.99" cy="394.501" r="31.047" fill="#1380b6"/><circle cx="246.472" cy="391.051" r="15.868" fill="#1c99d8"/><circle cx="177.478" cy="363.454" r="31.048" fill="#00af67"/><circle cx="171.958" cy="360.004" r="15.868" fill="#00ca77"/></g></symbol><symbol id="sprite-palette" viewBox="0 0 512 512"><path d="M0 0v234h1c.06-90.826 71.75-176.58 151-212.306C176.983 10.432 206.34 1.018 234 1l-22-1H0z" fill="#fff"/><path d="M234 .424c-31.852 4.185-61.83 10.72-91 24.835C68.641 61.237 13.904 135.052 2.285 217-15.505 342.48 60.557 467.195 184 502.421c24.781 7.072 54.144 13.006 80 9.279 23.481-3.385 39.003-27.926 34.334-50.7-2.475-12.073-10.698-19.426-16.061-30-8.106-15.985-4.742-35.19 7.898-47.829 22.482-22.483 63.292-11.295 91.829-13.261 41.257-2.841 79.791-25.771 103.848-58.91 43.786-60.316 29.074-146.102-11.569-204C422.927 33.846 323.546-11.339 234 .424z" fill="#010101"/><path d="M280 0v1c83.471.055 172.43 58.555 209.247 132 11.374 22.69 21.682 49.239 21.753 75h1V0H280m-96 57.594c-54.482 2.053-52.361 86.806 2 84.031 54.037-2.759 52.257-86.075-2-84.03m142 0c-54.238 2.043-52.05 86.789 2 84.03 54.311-2.773 52.525-86.085-2-84.03M96 171.428c-7.232 1.004-13.906 2.984-20 7.091-37.087 24.997-12.788 81.432 30 76.296 52.339-6.284 41.803-90.575-10-83.387m313 0c-8.156 1.129-15.277 3.463-21.999 8.356-35.59 25.909-9.099 79.964 31.999 75.031 52.191-6.266 41.677-90.541-10-83.387M511 244c-1.369 66.319-66.866 119.817-129 125.83-28.61 2.769-70.313-9.862-92.711 13.341-12.418 12.864-15.063 32.961-7.016 48.829 5.53 10.904 14.04 18.423 16.263 31 3.726 21.078-12.099 44.787-33.536 48v1h247V269l-1-25M0 278v234h234v-1c-87.234-.058-174.497-68.352-209.691-145-8.734-19.019-15.282-38.531-19.648-59-1.919-8.997-1.177-20.7-4.661-29z" fill="#fff"/></symbol><symbol id="sprite-pixel" viewBox="0 0 512 512"><path d="M100.244 374.568v-43.116a8.084 8.084 0 00-8.084-8.084H49.044a8.084 8.084 0 00-8.084 8.084v43.116a8.084 8.084 0 008.084 8.084H92.16a8.083 8.083 0 008.084-8.084z" fill="#9baaab"/><path d="M277.558 452.716h-43.116a8.084 8.084 0 00-8.084 8.084v43.116a8.084 8.084 0 008.084 8.084h43.116a8.084 8.084 0 008.084-8.084V460.8a8.084 8.084 0 00-8.084-8.084z" fill="#cdd4d5"/><path d="M195.638 439.781h-43.116a8.084 8.084 0 00-8.084 8.084v43.116a8.084 8.084 0 008.084 8.084h43.116a8.084 8.084 0 008.084-8.084v-43.116a8.084 8.084 0 00-8.084-8.084z" fill="#9baaab"/><path d="M126.653 392.354H83.537a8.084 8.084 0 00-8.084 8.084v43.116a8.084 8.084 0 008.084 8.084h43.116a8.084 8.084 0 008.084-8.084v-43.116a8.084 8.084 0 00-8.084-8.084zm353.549-137.971h-43.116a8.084 8.084 0 00-8.084 8.084v43.116a8.084 8.084 0 008.084 8.084h43.116a8.084 8.084 0 008.084-8.084v-43.116a8.084 8.084 0 00-8.084-8.084z" fill="#cdd4d5"/><path d="M462.956 323.368H419.84a8.084 8.084 0 00-8.084 8.084v43.116a8.084 8.084 0 008.084 8.084h43.116a8.084 8.084 0 008.084-8.084v-43.116a8.085 8.085 0 00-8.084-8.084zM359.478 439.781h-43.116a8.084 8.084 0 00-8.084 8.084v43.116a8.084 8.084 0 008.084 8.084h43.116a8.084 8.084 0 008.084-8.084v-43.116a8.084 8.084 0 00-8.084-8.084z" fill="#9baaab"/><path d="M428.463 392.354h-43.116a8.084 8.084 0 00-8.084 8.084v43.116a8.084 8.084 0 008.084 8.084h43.116a8.084 8.084 0 008.084-8.084v-43.116a8.084 8.084 0 00-8.084-8.084zM82.998 305.583v-43.116a8.084 8.084 0 00-8.084-8.084H31.798a8.084 8.084 0 00-8.084 8.084v43.116a8.084 8.084 0 008.084 8.084h43.116a8.084 8.084 0 008.084-8.084z" fill="#cdd4d5"/><path d="M304.978 2.517A8.087 8.087 0 00299.116 0h-86.232c-2.216 0-4.336.91-5.863 2.517a8.09 8.09 0 00-2.212 5.984l12.935 250.072a8.086 8.086 0 008.073 7.667h60.362a8.083 8.083 0 008.073-7.667L307.188 8.501a8.083 8.083 0 00-2.21-5.984z" fill="#4acfd9"/><path d="M217.745 258.573a8.086 8.086 0 008.073 7.667h60.362a8.083 8.083 0 008.073-7.667l7.137-137.971h-90.782l7.137 137.971z" fill="#87999b"/><path d="M256 206.956c-44.874 0-81.381 36.507-81.381 81.381 0 18.151 12.66 50.668 37.628 96.646 18.25 33.608 36.755 62.633 36.941 62.922a8.084 8.084 0 0013.624 0c.184-.29 18.69-29.314 36.939-62.922 24.969-45.979 37.629-78.496 37.629-96.646.001-44.874-36.506-81.381-81.38-81.381z" fill="#ffd1a9"/><path d="M212.884 0c-2.216 0-4.336.91-5.863 2.517a8.09 8.09 0 00-2.212 5.984l12.935 250.072a8.086 8.086 0 008.073 7.667h29.258V0h-42.191z" fill="#0295aa"/><path d="M210.609 120.602l7.137 137.971a8.086 8.086 0 008.073 7.667h29.258V120.602h-44.468z" fill="#687f82"/><path d="M174.619 288.337c0 18.151 12.66 50.668 37.628 96.646 18.25 33.608 36.755 62.633 36.941 62.922a8.078 8.078 0 005.89 3.673V206.979c-44.449.5-80.459 36.793-80.459 81.358z" fill="#ff8c29"/><path d="M264.394 373.468a8.084 8.084 0 01-7.099-11.941c6.604-12.174 12.339-23.444 17.042-33.5a8.085 8.085 0 0114.646 6.85c-4.839 10.345-10.717 21.904-17.475 34.359a8.087 8.087 0 01-7.114 4.232zm26.515-55.487a8.038 8.038 0 01-2.88-.534 8.085 8.085 0 01-4.672-10.435c4.964-13.011 5.479-18.279 5.519-18.795-.065-18.073-14.788-32.757-32.876-32.757a8.084 8.084 0 010-16.168c27.043 0 49.044 22.001 49.044 49.044 0 1.687-.474 8.433-6.581 24.44a8.086 8.086 0 01-7.554 5.205z" fill="#fff"/></symbol><symbol id="sprite-planet" viewBox="0 0 512 512"><path d="M460.811 102.4l-59.167-22.756 30.094 113.778 65.674-22.756a255.325 255.325 0 00-36.601-68.266z" fill="#f9b233"/><path d="M256 0l168.4 102.4h36.411C414.107 40.223 339.752 0 256 0z" fill="#fbc566"/><path d="M443.733 233.244l-11.994 130.844 65.674-22.756C506.848 314.641 512 285.924 512 256l-68.267-22.756zm-19.333 153.6l-73.142 81.159 24.208 14.449c33.559-17.741 62.703-42.71 85.345-72.852L424.4 386.844z" fill="#f9b233"/><path d="M307.2 221.867L5.126 307.2c10.849 53.444 38.354 100.831 76.852 136.533l292.036 24.27c19.337-15.953 36.375-35.716 50.386-58.403l30.094-68.267c7.759-26.692 11.994-55.41 11.994-85.333L307.2 221.867zm190.213-51.2h-42.918v42.667L466.489 256H512c0-29.924-5.152-58.641-14.587-85.333z" fill="#fbc566"/><path d="M454.494 170.667L424.4 102.4C385.998 40.223 324.863 0 256 0 132.149 0 28.846 87.95 5.126 204.8L307.2 256h159.289c0-29.924-4.236-58.641-11.995-85.333z" fill="#fcd999"/><circle cx="256" cy="51.2" r="17.067" fill="#fd5f6e"/><path d="M454.494 341.333L424.4 375.467V409.6h36.411a255.372 255.372 0 0036.601-68.267h-42.918z" fill="#fa9647"/><path d="M79.644 375.467c0 18.852 15.281 34.133 34.133 34.133H424.4c12.706-20.571 22.91-43.55 30.094-68.267H113.778c-18.852 0-34.134 15.282-34.134 34.134z" fill="#f9b233"/><path d="M170.667 102.4c-18.852 0-34.133 15.281-34.133 34.133s15.281 34.133 34.133 34.133h283.828c-7.184-24.717-17.39-47.696-30.094-68.267H170.667z" fill="#fbc566"/><path d="M374.014 468.003l-112.568 43.913c41.123-.86 79.859-11.404 114.021-29.464v-4.585c0-3.431-.512-6.741-1.453-9.864z" fill="#fcd999"/><path d="M341.333 443.733H81.978C127.652 486.092 188.796 512 256 512c1.822 0 3.633-.047 5.445-.084 37.054-1.145 71.72-13.95 101.631-35.491a210.415 210.415 0 0010.936-8.422c-4.231-14.041-17.257-24.27-32.679-24.27z" fill="#feeccc"/><path d="M256 204.8H5.126C1.767 221.343 0 238.466 0 256s1.767 34.657 5.126 51.2H256c28.277 0 51.2-22.923 51.2-51.2s-22.923-51.2-51.2-51.2z" fill="#f9b233"/><circle cx="469.333" cy="256" r="8.533" fill="#fb7a5b"/><circle cx="81.249" cy="133.632" r="8.533" fill="#f9b233"/><circle cx="435.2" cy="290.133" r="8.533" fill="#fa9647"/></symbol><symbol id="sprite-settingsbold" viewBox="0 0 35 35"><path d="M20.098 35H14.98a3.24 3.24 0 01-3.498-3.414c0-.42-.067-1.824-.924-2.295-.238-.132-.967-.348-2.557.458a3.302 3.302 0 01-4.508-1.341 81.297 81.297 0 01-1.45-2.586c-.37-.68-.707-1.299-.922-1.659-1.005-1.672-.578-3.411 1.144-4.65.81-.583 1.572-1.49 1.463-2.098-.139-.777-1.018-1.523-1.66-2.067a23.039 23.039 0 01-.405-.35 3.213 3.213 0 01-.358-4.286l.23-.41C2.493 8.59 3.426 6.932 3.758 6.4c.72-1.153 2.381-2.1 4.7-.982 1.455.703 1.797.433 1.98.289a2.698 2.698 0 001.213-2.375A3.55 3.55 0 0112.76.734 2.86 2.86 0 0114.718 0h5.38a3.15 3.15 0 013.364 3.404l.005.134c.007.092.01.202.013.33.022.899.141 1.452.708 1.807.772.482 2.252-.056 2.62-.292a2.918 2.918 0 012.333-.425 3.509 3.509 0 012.235 1.831c.435.807 1.388 2.53 2.026 3.69l.505.913c.904 1.647.402 3.109-1.491 4.348-1.22.797-1.154 1.377-1.133 1.567.138 1.217.287 1.683 1.422 2.115a2.586 2.586 0 011.536 1.523 3.609 3.609 0 01-.326 2.856l-.135.252a55.61 55.61 0 01-2.778 4.857c-1.541 2.116-3.437 1.273-4.457.82-1.366-.607-1.784-.57-1.879-.544a1.615 1.615 0 01-.246.2c-.651.476-.979.715-1.076 2.423A3.038 3.038 0 0120.098 35zm-5.116-3.5h4.874c.196-3.015 1.292-4.057 2.496-4.938l.253-.19c1.827-1.41 4.301-.31 5.36.16.065.03.196.088.327.141.31-.473.976-1.613 2.402-4.273l.02-.038a5.384 5.384 0 01-2.91-4.66c-.15-1.33.196-3.257 2.695-4.891l.14-.093-.301-.547a641.209 641.209 0 01-1.997-3.634c-1.332.704-3.932 1.405-6.009.107a5.296 5.296 0 01-2.351-4.69l-.006-.166a8.87 8.87 0 01-.012-.277l-.001-.01h-4.815a6.154 6.154 0 01-2.534 4.947c-2.244 1.782-4.828.531-5.676.121a1.914 1.914 0 00-.325-.126c-.446.75-1.533 2.693-2.024 3.569l-.233.416-.102.183.08.068a7.32 7.32 0 012.84 4.117c.349 1.938-.721 4.015-2.863 5.557a2.601 2.601 0 00-.133.103c.233.395.57 1.014.94 1.69.458.842.967 1.778 1.369 2.447 2.785-1.39 4.668-.97 5.758-.369a5.791 5.791 0 012.738 5.276zm13.81-23.234z"/><path d="M17.501 24.764a7.076 7.076 0 117.076-7.076 7.084 7.084 0 01-7.076 7.076zm0-10.652a3.576 3.576 0 103.576 3.576 3.58 3.58 0 00-3.576-3.576z"/></symbol><symbol id="sprite-tools" viewBox="0 0 511.999 511.999"><g fill="#cdd4d5"><path d="M370.885 327.27L186.862 143.248a7.998 7.998 0 00-11.312 0l-30.169 30.167a7.996 7.996 0 000 11.312l184.023 184.024a7.996 7.996 0 0011.312 0l30.167-30.169a7.996 7.996 0 00.002-11.312z"/><path d="M214.012 73.862L144.626 4.476a8 8 0 00-11.313 0l-30.166 30.167a7.998 7.998 0 000 11.312l51.662 51.662-55.056 55.056-51.663-51.66a7.998 7.998 0 00-11.312 0L6.61 131.18a7.998 7.998 0 000 11.312l69.386 69.386a7.998 7.998 0 006.381 2.31l66.37-6.034a8.007 8.007 0 004.932-2.31l54.302-54.302a7.996 7.996 0 002.31-4.932l6.034-66.37a8.001 8.001 0 00-2.313-6.378z"/></g><path d="M167.172 76.537a7.972 7.972 0 01-5.656-2.343l-21.332-21.332a7.998 7.998 0 010-11.312 7.998 7.998 0 0111.312 0l21.332 21.332a7.998 7.998 0 01-5.656 13.655z" fill="#fff"/><path d="M509.657 369.506l-69.386-69.386a7.999 7.999 0 00-6.38-2.31l-66.37 6.034a8.007 8.007 0 00-4.932 2.31l-54.302 54.302a7.996 7.996 0 00-2.31 4.932l-6.034 66.37a7.994 7.994 0 002.31 6.38l69.386 69.386a7.976 7.976 0 005.656 2.343 7.972 7.972 0 005.656-2.343l30.167-30.167a7.998 7.998 0 000-11.312l-51.662-51.662 55.056-55.056 51.662 51.662a7.998 7.998 0 0011.312 0l30.167-30.167a8 8 0 00.004-11.316z" fill="#cdd4d5"/><path d="M160.98 157.816l-15.6 15.599a7.996 7.996 0 000 11.312l184.024 184.024a7.996 7.996 0 0011.312 0l15.599-15.6L160.98 157.816z" fill="#687f82"/><path d="M127.796 124.631l-28.044 28.044-51.662-51.662a7.998 7.998 0 00-11.312 0L6.61 131.18a7.998 7.998 0 000 11.312l69.386 69.386a7.998 7.998 0 006.381 2.31l66.37-6.034a8.007 8.007 0 004.932-2.31l27.666-27.666-53.549-53.547zm180.491 235.824a7.996 7.996 0 00-2.31 4.932l-6.034 66.37a7.994 7.994 0 002.31 6.38l69.386 69.386a7.976 7.976 0 005.656 2.343 7.972 7.972 0 005.656-2.343l30.167-30.167a7.998 7.998 0 000-11.312l-51.662-51.663 28.044-28.044-53.547-53.547-27.666 27.665z" fill="#9baaab"/><g fill="#cdd4d5"><path d="M363.602 145.459l-24.134-24.135a7.998 7.998 0 00-11.312 0l-159.89 159.889a8 8 0 000 11.313L192.4 316.66a7.976 7.976 0 005.656 2.343 7.97 7.97 0 005.656-2.343l159.889-159.889a7.997 7.997 0 00.001-11.312z"/><path d="M463.155 45.905L439.021 21.77a7.995 7.995 0 00-8.967-1.625l-66.37 30.169a7.988 7.988 0 00-2.346 1.625l-51.283 51.285a7.998 7.998 0 000 11.312l60.335 60.335a7.968 7.968 0 005.656 2.343 7.972 7.972 0 005.656-2.343l51.285-51.285a7.982 7.982 0 001.625-2.346l30.167-66.37a7.99 7.99 0 00-1.624-8.965z"/></g><path d="M200.696 362.666L122.26 284.23a7.998 7.998 0 00-11.312 0l-93.52 93.52a8 8 0 000 11.313l78.436 78.436a7.976 7.976 0 005.656 2.343 7.972 7.972 0 005.656-2.343l93.52-93.52a8 8 0 000-11.313z" fill="#fd6a33"/><path d="M122.26 284.23a7.998 7.998 0 00-11.312 0l-93.52 93.52a8 8 0 000 11.313l38.888 38.889 104.833-104.833-38.889-38.889z" fill="#ff8c29"/><path d="M62.297 433.936l-11.313-11.313 104.831-104.831 11.313 11.313zm24.14 18.101l-11.313-11.313L176.938 338.91l11.313 11.313z" fill="#365558"/><path d="M44.202 409.808L32.89 398.495l101.814-101.814 11.313 11.313zm116.945-86.694L56.316 427.944l-5.324-5.324 104.83-104.83zm190.059-190.052L180.004 304.263l12.396 12.396a7.976 7.976 0 005.656 2.343 7.97 7.97 0 005.656-2.343l159.89-159.889a7.998 7.998 0 000-11.312l-12.396-12.396z" fill="#687f82"/><path d="M450.759 33.508L339.893 144.375l30.497 30.497a7.968 7.968 0 005.656 2.343 7.972 7.972 0 005.656-2.343l51.285-51.285a7.982 7.982 0 001.625-2.346l30.167-66.37a8 8 0 00-1.625-8.967l-12.395-12.396z" fill="#9baaab"/><path d="M74.371 484.926c1.327 0 2.663-.33 3.882-1.007l27.15-15.084-89.314-89.313-15.082 27.151a8 8 0 001.336 9.541l66.37 66.369a7.99 7.99 0 005.658 2.343z" fill="#ff8c29"/><path d="M16.091 379.522L1.007 406.673a8 8 0 001.336 9.541l32.855 32.855 25.22-25.22-44.327-44.327z" fill="#ffd1a9"/><path d="M164.495 266.13a8.004 8.004 0 00-8.808-1.696l-42.235 18.101 88.94 88.94 18.101-42.235a8.001 8.001 0 00-1.696-8.808l-54.302-54.302z" fill="#ff8c29"/><path d="M164.495 266.13a8.004 8.004 0 00-8.808-1.696l-42.235 18.101 44.141 44.141 33.723-33.723-26.821-26.823z" fill="#ffd1a9"/><path d="M353.575 117.36a7.972 7.972 0 01-5.656-2.343 7.998 7.998 0 010-11.312l25.598-25.598a7.998 7.998 0 0111.312 0 7.998 7.998 0 010 11.312l-25.598 25.598a7.976 7.976 0 01-5.656 2.343z" fill="#fff"/></symbol><symbol id="sprite-vector" viewBox="0 0 60 60"><path d="M56 32a1 1 0 01-1-1c0-.64-.024-1.286-.072-1.922a.999.999 0 111.994-.15c.052.685.078 1.382.078 2.072a1 1 0 01-1 1zM4.034 30.669l-.052-.001a1 1 0 01-.948-1.049c.035-.691.097-1.386.183-2.066.07-.549.58-.933 1.118-.866a1 1 0 01.866 1.118c-.081.63-.138 1.275-.17 1.916a.998.998 0 01-.997.948zm51.281-4.614a1 1 0 01-.973-.772 24.18 24.18 0 00-.51-1.852 1 1 0 011.906-.606c.208.654.394 1.328.551 2.003a.999.999 0 01-.974 1.227zM5.02 24.767a1 1 0 01-.961-1.278c.192-.665.412-1.328.654-1.971a1 1 0 111.871.703 24.65 24.65 0 00-.605 1.824.998.998 0 01-.959.722zm48.266-4.344a1 1 0 01-.896-.554 24.018 24.018 0 00-.923-1.685 1 1 0 011.715-1.029c.354.589.689 1.202.999 1.823a1 1 0 01-.895 1.445zM7.336 19.25a1 1 0 01-.87-1.491c.339-.601.705-1.195 1.089-1.768a1 1 0 111.661 1.115c-.355.529-.694 1.08-1.008 1.636a1.001 1.001 0 01-.872.508zm42.681-3.842a1 1 0 01-.771-.361c-.408-.492-.84-.974-1.283-1.431a1 1 0 111.435-1.392 27.51 27.51 0 011.387 1.545 1 1 0 01-.768 1.639zm-39.161-.997a1 1 0 01-.736-1.677c.467-.508.959-1.003 1.463-1.474a1.002 1.002 0 011.414.049 1.002 1.002 0 01-.049 1.414c-.466.435-.922.894-1.354 1.364a1.001 1.001 0 01-.738.324zm34.832-3.14a.996.996 0 01-.603-.203 25.365 25.365 0 00-1.577-1.102 1 1 0 011.083-1.681c.581.375 1.153.774 1.701 1.189a1 1 0 01-.604 1.797zm-30.3-.773a.999.999 0 01-.564-1.827c.572-.389 1.164-.76 1.761-1.102a.999.999 0 11.994 1.736c-.552.316-1.101.659-1.63 1.02a.999.999 0 01-.561.173zM31.667 9h-2a1 1 0 010-2h2a1 1 0 010 2zm8.869-.77c-.135 0-.273-.028-.405-.086a25.599 25.599 0 00-1.785-.711 1 1 0 01.669-1.885c.651.231 1.3.489 1.927.768a1 1 0 01-.406 1.914zm-19.844-.507a1.002 1.002 0 01-.358-1.935 26.484 26.484 0 011.968-.668 1 1 0 01.569 1.917c-.611.182-1.223.389-1.82.618a.985.985 0 01-.359.068zM27 7.667a1 1 0 01-1-1v-.556a.999.999 0 01.358-1.86c.176-.024.352-.046.527-.066L28 4.056v2.611a1 1 0 01-1 1zm7.824-1.213a.99.99 0 01-.186-.017 24.171 24.171 0 00-1.214-.197A1.004 1.004 0 0132 5.333V4.055l1.115.129c.638.074 1.274.17 1.892.286a1 1 0 01-.183 1.984z" fill="#7383bf"/><path d="M27 6H7a1 1 0 010-2h20a1 1 0 010 2zm26 0H33a1 1 0 010-2h20a1 1 0 110 2z" fill="#7383bf"/><path d="M37 49H23v-4.244A6.756 6.756 0 0016.244 38H13l17-26 17 26h-3.244A6.756 6.756 0 0037 44.756V49z" fill="#efce4a"/><path fill="#7383bf" d="M23 49h14v5H23z"/><path fill="#434c6d" d="M25 54h10v5H25z"/><g fill="#434c6d"><path d="M1 31h6v6H1z"/><path d="M8 38H0v-8h8v8zm-6-2h4v-4H2v4z"/></g><g fill="#434c6d"><path d="M53 31h6v6h-6z"/><path d="M60 38h-8v-8h8v8zm-6-2h4v-4h-4v4z"/></g><g fill="#434c6d"><path d="M27 2h6v6h-6z"/><path d="M34 9h-8V1h8v8zm-6-2h4V3h-4v4z"/></g><g fill="#26b99a"><circle cx="4" cy="5" r="3"/><path d="M4 9C1.794 9 0 7.206 0 5s1.794-4 4-4 4 1.794 4 4-1.794 4-4 4zm0-6c-1.103 0-2 .897-2 2s.897 2 2 2 2-.897 2-2-.897-2-2-2z"/></g><g fill="#26b99a"><circle cx="56" cy="5" r="3"/><path d="M56 9c-2.206 0-4-1.794-4-4s1.794-4 4-4 4 1.794 4 4-1.794 4-4 4zm0-6c-1.103 0-2 .897-2 2s.897 2 2 2 2-.897 2-2-.897-2-2-2z"/></g><path d="M31 33.142V12a1 1 0 00-2 0v21.142c-1.72.447-3 2-3 3.858 0 2.206 1.794 4 4 4s4-1.794 4-4c0-1.858-1.28-3.411-3-3.858zM30 39c-1.103 0-2-.897-2-2s.897-2 2-2 2 .897 2 2-.897 2-2 2z" fill="#f7e6a1"/></symbol><symbol id="sprite-website_home" viewBox="0 0 35 35"><path d="M17.5 0a17.119 17.119 0 018.784 2.347 17.421 17.421 0 016.369 6.369A17.119 17.119 0 0135 17.5a17.119 17.119 0 01-2.347 8.784 17.421 17.421 0 01-6.369 6.369A17.119 17.119 0 0117.5 35a17.119 17.119 0 01-8.784-2.347 17.421 17.421 0 01-6.369-6.369A17.119 17.119 0 010 17.5a17.119 17.119 0 012.347-8.784 17.421 17.421 0 016.369-6.369A17.119 17.119 0 0117.5 0zm6.243 11.872a1.29 1.29 0 00-.216.216.588.588 0 01-.308.217q.046 0 .103-.114t.114-.25a.7.7 0 01.08-.16 1.649 1.649 0 01.5-.342 5.742 5.742 0 011.186-.274 1.11 1.11 0 011.162.251q-.046-.046.216-.296a1.567 1.567 0 01.33-.274 1.229 1.229 0 01.343-.102.51.51 0 00.341-.171l.046-.501a.405.405 0 01-.399-.16.964.964 0 01-.148-.478q0 .045-.137.182 0-.16-.102-.182a.548.548 0 00-.262.022.36.36 0 01-.205.023.895.895 0 01-.342-.17.751.751 0 01-.182-.377q-.069-.273-.091-.342a.609.609 0 00-.217-.239.609.609 0 01-.216-.239q-.023-.046-.057-.125t-.069-.148a.48.48 0 00-.09-.126.174.174 0 00-.126-.057q-.069 0-.16.114t-.17.228q-.08.114-.103.114a.186.186 0 00-.137-.034.726.726 0 00-.102.023.384.384 0 00-.103.068.638.638 0 01-.114.08.52.52 0 01-.194.068 1.49 1.49 0 00-.193.046q.342-.114-.023-.251a.72.72 0 00-.365-.068.237.237 0 00.171-.274.548.548 0 00-.193-.319h.113q-.022-.09-.193-.193a2.794 2.794 0 00-.399-.194 1.96 1.96 0 01-.296-.137 2.525 2.525 0 00-.775-.216 1.412 1.412 0 00-.752-.012.338.338 0 00-.102.24 1.543 1.543 0 00.09.318 1.1 1.1 0 01.08.285.361.361 0 01-.125.297.446.446 0 00-.148.273q0 .16.319.353a.402.402 0 01.228.49.826.826 0 01-.365.365 1.527 1.527 0 00-.364.273.476.476 0 00-.034.422.825.825 0 00.239.376.095.095 0 01.034.09.22.22 0 01-.08.103 1.02 1.02 0 01-.125.092q-.057.034-.148.08l-.069.045a.373.373 0 01-.467-.137 1.473 1.473 0 01-.307-.592q-.16-.57-.365-.684-.524-.182-.66.023-.115-.296-.935-.593a2.685 2.685 0 00-1.322-.09q.137-.024 0-.343-.16-.341-.433-.273a1.144 1.144 0 00.092-.399q.022-.262.022-.307a1.162 1.162 0 01.274-.524q.023-.023.16-.194a2.616 2.616 0 00.216-.308q.08-.136.011-.136a1.345 1.345 0 001.14-.251 1.752 1.752 0 00.262-.387 2.839 2.839 0 01.239-.388.553.553 0 01.319-.125 1.02 1.02 0 01.33.125.802.802 0 00.33.114q.32.023.354-.25a.495.495 0 00-.171-.456q.273.022.068-.388a.87.87 0 00-.182-.205.731.731 0 00-.615.114q-.183.091.045.182-.022-.022-.216.24a1.927 1.927 0 01-.376.399q-.182.136-.365-.114a1.839 1.839 0 01-.125-.308q-.103-.285-.216-.308-.183 0-.365.342.068-.182-.25-.342a1.639 1.639 0 00-.548-.182q.433-.273-.182-.615a1.132 1.132 0 00-.467-.114.619.619 0 00-.444.091.613.613 0 00-.126.262.194.194 0 00.114.182 1.459 1.459 0 00.24.126q.113.045.262.09a1.561 1.561 0 01.193.07q.32.227.183.318-.046.023-.194.08t-.262.102a.26.26 0 00-.137.092.374.374 0 000 .319q.068.227-.045.319a1.009 1.009 0 01-.206-.4 1.453 1.453 0 00-.16-.375q.16.205-.569.136l-.228-.022a2.796 2.796 0 00-.364.045 1.693 1.693 0 01-.467.023.424.424 0 01-.308-.182.587.587 0 010-.456q.023-.091.091-.046-.09-.068-.25-.216a2.224 2.224 0 00-.228-.194 12.922 12.922 0 00-2.142.935.561.561 0 00.273-.023 2.648 2.648 0 00.296-.148q.183-.103.228-.126.775-.319.957-.16l.114-.113a6.071 6.071 0 01.456.57 1.294 1.294 0 00-.684-.023q-.455.136-.5.273a.558.558 0 01.113.41q-.091-.068-.262-.228a1.808 1.808 0 00-.33-.25.91.91 0 00-.342-.114 3.613 3.613 0 00-.501.023A14.379 14.379 0 005.15 9.775a.604.604 0 00.273.183q.091.022.114.205a.873.873 0 00.057.25q.034.069.262-.068a.32.32 0 01.068.433 8.362 8.362 0 011.003.615 3.11 3.11 0 01.479.479q.068.25-.228.41a1.165 1.165 0 00-.205-.205q-.183-.16-.205-.091a.608.608 0 00.011.421q.08.308.24.285-.16 0-.217.365a5.263 5.263 0 00-.057.809 3.398 3.398 0 01-.023.535l.046.023a1.419 1.419 0 00.125.786q.194.513.49.444-.296.069.456.98a.894.894 0 00.182.205q.068.046.273.171t.342.228a.972.972 0 01.228.24 2.005 2.005 0 01.228.512 1.115 1.115 0 00.319.535q-.046.137.216.456a.783.783 0 01.24.524.11.11 0 00-.057.023.11.11 0 01-.057.023.778.778 0 00.353.319.856.856 0 01.353.296 1.455 1.455 0 01.045.228.838.838 0 00.069.25q.045.092.182.046a2.682 2.682 0 00-.547-1.413q-.342-.57-.387-.66a1.31 1.31 0 01-.125-.354 1.738 1.738 0 00-.103-.33.437.437 0 01.137.034q.09.034.193.08a1.161 1.161 0 01.171.091q.069.046.046.068a.483.483 0 00.045.4 1.83 1.83 0 00.274.42q.16.183.387.434t.274.296a2.342 2.342 0 01.319.444q.182.308 0 .308a.718.718 0 01.455.228 2.063 2.063 0 01.388.455 1.705 1.705 0 01.182.593 4.393 4.393 0 00.114.547.72.72 0 00.194.307 1.13 1.13 0 00.285.217l.364.182.296.16a3.325 3.325 0 01.422.239 2.94 2.94 0 00.49.262 1.05 1.05 0 00.364.091 1.204 1.204 0 00.33-.057q.194-.057.308-.08a.741.741 0 01.661.342 2.248 2.248 0 00.479.479 1.56 1.56 0 001.253.25q-.046.023.011.171a2.262 2.262 0 00.183.353q.125.205.205.33t.125.194a2.163 2.163 0 00.41.342 2.163 2.163 0 01.41.342.335.335 0 00.16-.205q-.068.182.16.456t.41.228q.319-.069.319-.73a.767.767 0 01-1.117-.41.444.444 0 00-.057-.125 1.354 1.354 0 01-.148-.387.323.323 0 010-.171.105.105 0 01.114-.069q.205 0 .228-.08a.569.569 0 00-.046-.284q-.068-.205-.09-.296a.985.985 0 00-.252-.456q-.227-.274-.273-.342a.347.347 0 01-.365.182.45.45 0 01-.364-.205.629.629 0 01-.034.126.542.542 0 00-.035.148 1.3 1.3 0 01-.341-.023 2.82 2.82 0 00.057-.399 3.885 3.885 0 01.08-.513 1.266 1.266 0 01.125-.273q.102-.182.17-.33a1.123 1.123 0 00.092-.285.201.201 0 00-.103-.217.66.66 0 00-.398-.057.63.63 0 00-.593.456q-.023.068-.068.24a.772.772 0 01-.114.261.567.567 0 01-.205.16 1.332 1.332 0 01-.547.045 1.343 1.343 0 01-.547-.114 1.444 1.444 0 01-.513-.66 2.094 2.094 0 01-.216-.844 4.234 4.234 0 01.057-.603q.057-.376.068-.57a1.497 1.497 0 00-.125-.558 1.156 1.156 0 00.205-.217 1.415 1.415 0 01.228-.239.407.407 0 01.102-.034.233.233 0 01.103 0 .095.095 0 00.091-.034.289.289 0 00.068-.137.68.68 0 00-.09-.068q-.07-.069-.092-.069a1.308 1.308 0 00.65-.034q.49-.102.626.034.342.25.501-.045a1.814 1.814 0 00-.057-.217.48.48 0 01-.011-.307q.114.615.66.205a.738.738 0 00.354.114 1.213 1.213 0 01.399.114 1.595 1.595 0 01.16.125 1.535 1.535 0 00.125.102q.034.023.113-.011a.687.687 0 00.194-.148 1.517 1.517 0 01.274.547q.25.911.433 1.002a.418.418 0 00.25.046q.091-.023.103-.216a2.212 2.212 0 000-.32q-.012-.125-.034-.284l-.023-.183v-.41l-.023-.182a.514.514 0 01-.422-.274.49.49 0 01.035-.421 1.546 1.546 0 01.341-.422.744.744 0 01.183-.08q.16-.056.353-.148a1.025 1.025 0 00.285-.182q.478-.433.342-.797.159 0 .25-.205a.333.333 0 01-.114-.069 1.665 1.665 0 00-.17-.114.31.31 0 00-.103-.045q.205-.114.045-.365a.423.423 0 00.171-.25.329.329 0 01.171-.228.292.292 0 00.479.045.263.263 0 00.022-.364.767.767 0 01.468-.24q.353-.08.421-.216.16.045.182-.046a1.215 1.215 0 00.023-.273.453.453 0 01.069-.274.776.776 0 01.341-.205q.251-.09.297-.114l.387-.25q.068-.091 0-.091a.825.825 0 00.706-.251q.228-.25-.136-.456a.148.148 0 00-.069-.216 1.192 1.192 0 00-.342-.126.826.826 0 01.262-.01q.194.01.24-.035.342-.228-.16-.365a1.234 1.234 0 00-.98.274zM20.03 31.855a14.1 14.1 0 007.998-4.306.543.543 0 00-.285-.103.819.819 0 01-.284-.08 3.585 3.585 0 00-.547-.182.446.446 0 00-.057-.296.608.608 0 00-.183-.205q-.102-.068-.284-.182t-.251-.16q-.046-.045-.16-.137t-.159-.125a1.62 1.62 0 00-.17-.102.262.262 0 00-.195-.046.8.8 0 01-.227.023l-.069.023a.63.63 0 00-.125.057q-.057.034-.125.068a.235.235 0 00-.092.068q-.022.034 0 .057a2.821 2.821 0 00-.82-.501.644.644 0 01-.25-.125 2.165 2.165 0 00-.24-.16.333.333 0 00-.228-.034.52.52 0 00-.262.16.545.545 0 00-.136.341 1.728 1.728 0 01-.046.296q-.16-.113 0-.398t.046-.422a.196.196 0 00-.24-.102.762.762 0 00-.273.102q-.103.069-.262.194a1.774 1.774 0 01-.205.148 2.179 2.179 0 00-.194.125.766.766 0 00-.194.171 1.13 1.13 0 00-.136.274 1.38 1.38 0 01-.114.25q-.046-.09-.262-.148t-.217-.125a7.938 7.938 0 01.091.797 6.4 6.4 0 00.114.866 1.052 1.052 0 01-.273 1.094 1.878 1.878 0 00-.66.911q-.092.502.273.593a1.055 1.055 0 01-.183.467.844.844 0 00-.16.49 1.96 1.96 0 00.046.364z"/></symbol></svg>